<svg width="58" height="8" viewBox="0 0 58 8" fill="none" xmlns="http://www.w3.org/2000/svg">
<path d="M4.23107 0.307617L5.38403 2.64378L7.96214 3.0184L6.0966 4.83684L6.53699 7.40453L4.23107 6.19223L1.92514 7.40453L2.36553 4.83684L0.5 3.0184L3.0781 2.64378L4.23107 0.307617Z" fill="#FDC55E"/>
<path d="M16.6539 0.307617L17.8069 2.64378L20.385 3.0184L18.5195 4.83684L18.9598 7.40453L16.6539 6.19223L14.348 7.40453L14.7884 4.83684L12.9229 3.0184L15.501 2.64378L16.6539 0.307617Z" fill="#FDC55E"/>
<path d="M29.0768 0.307617L30.2297 2.64378L32.8078 3.0184L30.9423 4.83684L31.3827 7.40453L29.0768 6.19223L26.7708 7.40453L27.2112 4.83684L25.3457 3.0184L27.9238 2.64378L29.0768 0.307617Z" fill="#FDC55E"/>
<path d="M41.5006 0.307617L42.6536 2.64378L45.2317 3.0184L43.3661 4.83684L43.8065 7.40453L41.5006 6.19223L39.1947 7.40453L39.6351 4.83684L37.7695 3.0184L40.3476 2.64378L41.5006 0.307617Z" fill="#FDC55E"/>
<path fill-rule="evenodd" clip-rule="evenodd" d="M55.0764 2.64378L53.9235 0.307617L52.7705 2.64378L50.1924 3.0184L52.0579 4.83684L51.6175 7.40453L53.9235 6.19223L56.2294 7.40453L55.789 4.83684L57.6545 3.0184L55.0764 2.64378ZM56.2494 3.47494L54.6422 3.2414L53.9235 1.78502L53.2047 3.2414L51.5975 3.47494L52.7605 4.60857L52.4859 6.20929L53.9235 5.45353L55.361 6.20929L55.0864 4.60857L56.2494 3.47494Z" fill="#FDC55E"/>
</svg>
