<svg width="101" height="20" viewBox="0 0 101 20" fill="none" xmlns="http://www.w3.org/2000/svg">
<path d="M10.2 10.9528L10.766 7.49397H7.227V5.24874C7.20214 4.99004 7.23973 4.72942 7.33698 4.48621C7.43423 4.24301 7.58864 4.02347 7.78875 3.8439C7.98886 3.66433 8.22953 3.52935 8.49289 3.44896C8.75625 3.36858 9.03553 3.34487 9.31 3.37958H10.919V0.434699C9.97302 0.291461 9.01713 0.21341 8.059 0.201172C5.144 0.201172 3.239 1.85837 3.239 4.85671V7.49304H0V10.9519H3.24V19.3148H7.227V10.9528H10.2Z" fill="#FDC55E"/>
<path d="M44.923 4.31809C44.0183 4.31809 43.134 4.56968 42.3818 5.04105C41.6296 5.51241 41.0434 6.18239 40.6972 6.96624C40.351 7.75009 40.2604 8.61262 40.4369 9.44476C40.6134 10.2769 41.049 11.0413 41.6887 11.6412C42.3284 12.2411 43.1434 12.6497 44.0307 12.8152C44.9179 12.9807 45.8376 12.8958 46.6734 12.5711C47.5092 12.2464 48.2235 11.6966 48.7261 10.9911C49.2287 10.2857 49.497 9.4563 49.497 8.60786C49.4981 8.04424 49.3805 7.48597 49.151 6.96507C48.9215 6.44416 48.5846 5.97087 48.1597 5.57233C47.7347 5.17379 47.2301 4.85785 46.6746 4.64262C46.1192 4.42739 45.524 4.3171 44.923 4.31809ZM44.923 11.3961C44.335 11.3961 43.7602 11.2326 43.2713 10.9262C42.7824 10.6198 42.4013 10.1844 42.1763 9.67488C41.9513 9.1654 41.8924 8.60477 42.0071 8.0639C42.1218 7.52303 42.405 7.02621 42.8208 6.63627C43.2366 6.24632 43.7663 5.98077 44.343 5.87318C44.9197 5.76559 45.5175 5.82081 46.0607 6.03185C46.604 6.24289 47.0683 6.60026 47.395 7.05879C47.7216 7.51732 47.896 8.0564 47.896 8.60786C47.8944 9.3469 47.5807 10.0552 47.0235 10.5778C46.4663 11.1004 45.711 11.3946 44.923 11.3961V11.3961ZM50.75 4.14271C50.75 4.34063 50.6874 4.5341 50.5702 4.69867C50.4529 4.86323 50.2863 4.99149 50.0913 5.06724C49.8964 5.14298 49.6818 5.16279 49.4748 5.12418C49.2679 5.08557 49.0777 4.99026 48.9285 4.85031C48.7793 4.71036 48.6777 4.53205 48.6365 4.33794C48.5953 4.14382 48.6165 3.94261 48.6972 3.75976C48.778 3.57691 48.9147 3.42062 49.0902 3.31066C49.2657 3.2007 49.472 3.14201 49.683 3.14201C49.8233 3.14152 49.9623 3.16706 50.0921 3.21716C50.2218 3.26726 50.3397 3.34094 50.439 3.43395C50.5383 3.52696 50.6169 3.63747 50.6705 3.75911C50.724 3.88074 50.7514 4.01112 50.751 4.14271H50.75ZM53.775 5.15748C53.8045 3.85672 53.2868 2.59736 52.334 1.65175C51.3237 0.761166 49.9823 0.276179 48.596 0.300296C47.123 0.221516 42.709 0.221516 41.236 0.300296C39.8501 0.274366 38.5085 0.758095 37.498 1.648C36.5493 2.59565 36.0342 3.85413 36.063 5.15372C35.979 6.53519 35.979 10.6749 36.063 12.0564C36.0335 13.3571 36.5512 14.6165 37.504 15.5621C38.5146 16.4515 39.8553 16.936 41.241 16.9126C42.714 16.9914 47.128 16.9914 48.601 16.9126C49.9879 16.9403 51.3307 16.4548 52.339 15.5612C53.2865 14.6131 53.8018 13.3555 53.775 12.0564C53.863 10.6749 53.863 6.53895 53.775 5.15748ZM51.875 13.5363C51.7237 13.8974 51.4946 14.2253 51.2021 14.4996C50.9096 14.7739 50.56 14.9887 50.175 15.1307C49.001 15.5677 46.214 15.4664 44.917 15.4664C43.62 15.4664 40.829 15.5602 39.659 15.1307C39.274 14.9887 38.9244 14.7739 38.6319 14.4996C38.3394 14.2253 38.1103 13.8974 37.959 13.5363C37.493 12.4353 37.601 9.82146 37.601 8.60505C37.601 7.38865 37.501 4.77108 37.959 3.67378C38.1103 3.31274 38.3394 2.98482 38.6319 2.71051C38.9244 2.43619 39.274 2.22136 39.659 2.07942C40.833 1.64238 43.62 1.74366 44.917 1.74366C46.214 1.74366 49.005 1.64988 50.175 2.07942C50.56 2.22136 50.9096 2.43619 51.2021 2.71051C51.4946 2.98482 51.7237 3.31274 51.875 3.67378C52.341 4.77483 52.233 7.38865 52.233 8.60505C52.233 9.82146 52.343 12.4409 51.875 13.5363Z" fill="#FDC55E"/>
<path d="M98.285 4.71433C98.298 4.88408 98.298 5.05383 98.298 5.22358C98.3092 6.69016 98.0094 8.14419 97.4161 9.50116C96.8229 10.8581 95.9479 12.091 94.8422 13.128C93.7364 14.1651 92.4219 14.9857 90.975 15.5421C89.5281 16.0985 87.9777 16.3796 86.414 16.3691C84.14 16.3748 81.9127 15.7642 80 14.6106C80.335 14.6453 80.6719 14.6616 81.009 14.6594C82.8891 14.6638 84.7161 14.0741 86.195 12.9853C85.3231 12.9702 84.4779 12.6999 83.7778 12.2123C83.0777 11.7246 82.5575 11.044 82.29 10.2655C82.551 10.3044 82.8147 10.3248 83.079 10.3265C83.4502 10.3256 83.8198 10.2809 84.179 10.1933C83.2331 10.0139 82.3826 9.5328 81.772 8.83182C81.1615 8.13083 80.8286 7.2532 80.83 6.34808V6.30213C81.4088 6.60498 82.0557 6.77529 82.718 6.79919C81.8316 6.24467 81.2042 5.39378 80.9639 4.4202C80.7236 3.44661 80.8885 2.42373 81.425 1.5603C82.4741 2.77137 83.7829 3.76212 85.2665 4.46833C86.7501 5.17454 88.3754 5.58043 90.037 5.65969C89.9711 5.36449 89.9376 5.06375 89.937 4.76216C89.9391 3.97762 90.192 3.2117 90.6631 2.56342C91.1342 1.91513 91.8019 1.41429 92.5797 1.12564C93.3575 0.836986 94.2098 0.773802 95.0263 0.94425C95.8429 1.1147 96.5861 1.51094 97.16 2.08175C98.0954 1.9127 98.9924 1.5925 99.811 1.13545C99.4992 2.04002 98.8464 2.80693 97.975 3.29253C98.8044 3.20384 99.6151 2.99931 100.38 2.68573C99.8081 3.46671 99.0999 4.15158 98.285 4.71151V4.71433Z" fill="#FDC55E"/>
</svg>
